HIERARCHY
ROOT Hips
{
  OFFSET 281.309 101.946 393.466
  CHANNELS 6 Xposition Yposition Zposition Zrotation Xrotation Yrotation
  JOINT RightUpLeg
  {
    OFFSET -8.9458 -8.66707 0.101652
    CHANNELS 3 Zrotation Xrotation Yrotation
    JOINT RightLeg
    {
      OFFSET 0 -44.4227 1.3727
      CHANNELS 3 Zrotation Xrotation Yrotation
      JOINT RightFoot
      {
        OFFSET 0.253549 -42.0924 -1.46059
        CHANNELS 3 Zrotation Xrotation Yrotation
        JOINT RightToes
        {
          OFFSET 0.04 -4.41509 8.4991
          CHANNELS 3 Zrotation Xrotation Yrotation
          End Site
          {
            OFFSET -0.08 -0.137448 9.77979
          }
        }
      }
    }
  }
  JOINT Spine
  {
    OFFSET 0 11.8905 0
    CHANNELS 3 Zrotation Xrotation Yrotation
    JOINT Spine1
    {
      OFFSET 0 25.6574 0.127663
      CHANNELS 3 Zrotation Xrotation Yrotation
      JOINT HEad
      {
        OFFSET 0 8.73416 0.011341
        CHANNELS 3 Zrotation Xrotation Yrotation
        End Site
        {
          OFFSET -0.29 12.7742 2.51395
        }
      }
      JOINT LeftShoulder1
      {
        OFFSET 8.99 -0.362252 -0.22
        CHANNELS 3 Zrotation Xrotation Yrotation
        JOINT LeftArm
        {
          OFFSET 10.2827 -0.00338 0.322123
          CHANNELS 3 Zrotation Xrotation Yrotation
          JOINT LeftForeArm
          {
            OFFSET 32.7669 0.099144 -1.42434
            CHANNELS 3 Zrotation Xrotation Yrotation
            JOINT LeftHand
            {
              OFFSET 27.5643 0.085362 1.02216
              CHANNELS 3 Zrotation Xrotation Yrotation
              End Site
              {
                OFFSET 16.7443 -0.6 1.50291
              }
            }
          }
        }
      }
      JOINT RightShoulder
      {
        OFFSET -8.99 -0.362252 -0.22
        CHANNELS 3 Zrotation Xrotation Yrotation
        JOINT RightArm
        {
          OFFSET -10.2827 -0.00338 0.322123
          CHANNELS 3 Zrotation Xrotation Yrotation
          JOINT RightForeArm
          {
            OFFSET -32.8971 0.099144 -1.42434
            CHANNELS 3 Zrotation Xrotation Yrotation
            JOINT RightHand
            {
              OFFSET -27.4921 0.085362 1.02216
              CHANNELS 3 Zrotation Xrotation Yrotation
              End Site
              {
                OFFSET -16.6312 -0.6 1.50291
              }
            }
          }
        }
      }
    }
  }
  JOINT LeftUpLeg
  {
    OFFSET 8.9458 -8.66707 0.101652
    CHANNELS 3 Zrotation Xrotation Yrotation
    JOINT LeftLeg
    {
      OFFSET 0 -44.4227 1.3727
      CHANNELS 3 Zrotation Xrotation Yrotation
      JOINT LeftFoot
      {
        OFFSET -0.253549 -42.0924 -1.46059
        CHANNELS 3 Zrotation Xrotation Yrotation
        JOINT LeftToes
        {
          OFFSET -0.04 -4.41509 8.4991
          CHANNELS 3 Zrotation Xrotation Yrotation
          End Site
          {
            OFFSET 0.08 -0.047448 9.77979
          }
        }
      }
    }
  }
}
MOTION
Frames:	14
Frame Time:	0.0166667
0	103.836	0	1.79504	0.705598	158.398	0.623943	1.16255	3.99571	-0.271911	8.9297	6.71342	2.20772	-7.97959	-2.86113	0.0462048	0.000533964	0.662642	0.232408	-3.05921	-1.10872	0.406261	-6.11956	-2.20999	1.76575	16.6888	17.8172	-3.53E-31	-6.36E-15	-3.18E-15	4.78648	-13.6119	-7.69847	-1.18513	10.3798	-2.50672	0.402731	13.2269	6.73181	-3.53E-31	-6.36E-15	-3.18E-15	-3.79902	-11.2268	5.61217	1.9592	17.1786	-4.52889	3.07245	13.3919	-4.92172	0.85956	3.93422	15.5756	1.15338	9.06302	4.58042	-7.09635	-17.2153	-1.31121	1.36E-14	3.02E-14	4.97E-15
-0.001	103.839	-0.019	1.79283	0.694912	158.421	0.660451	1.1575	3.9785	-0.27767	8.92981	6.71376	2.19121	-7.97869	-3.0016	0.0462048	0.000533964	0.662642	0.22942	-3.06272	-1.10852	0.400218	-6.12651	-2.20974	1.79736	16.7143	17.7989	1.59E-15	3.18E-15	6.36E-15	4.81717	-13.602	-7.70544	-1.19638	10.3791	-2.50081	0.366109	13.2458	6.72311	1.59E-15	3.18E-15	6.36E-15	-3.797	-11.2158	5.58592	1.96873	17.1997	-4.54769	3.07346	13.3968	-4.93186	0.872819	3.93273	15.5955	1.14995	9.05886	4.54645	-7.10023	-17.2147	-1.31401	1.32E-14	3.26E-14	5.76E-15
0.041	103.84	-0.013	1.80122	0.688883	158.439	0.650532	1.1685	3.96513	-0.276212	8.93032	6.71775	2.19567	-7.97147	-2.78735	0.0462048	0.000533964	0.662642	0.228002	-3.06465	-1.10877	0.397833	-6.13294	-2.21021	1.82814	16.7465	17.7647	8.83E-32	1.59E-15	-3.18E-15	4.83494	-13.6022	-7.71909	-1.19112	10.3789	-2.49708	0.366349	13.2406	6.73205	8.83E-32	1.59E-15	-3.18E-15	-3.79489	-11.2075	5.54972	1.97986	17.2133	-4.5546	3.09623	13.3969	-4.94095	0.895613	3.93849	15.6092	1.15042	9.05655	4.51937	-7.10764	-17.2156	-1.31452	1.52E-14	3.34E-14	5.76E-15
0.022	103.841	-0.04	1.79677	0.698713	158.462	0.682646	1.18082	3.95313	-0.27317	8.93136	6.72029	2.18142	-7.95928	-3.08952	0.0462048	0.000533964	0.662642	0.22676	-3.06588	-1.1091	0.397228	-6.13378	-2.21091	1.84451	16.7735	17.7336	7.95E-16	-1.59E-15	3.18E-15	4.84211	-13.619	-7.72914	-1.17557	10.3984	-2.49914	0.385268	13.2282	6.74434	7.95E-16	-1.59E-15	3.18E-15	-3.79281	-11.2196	5.51291	1.98434	17.2078	-4.55621	3.12532	13.3947	-4.94197	0.891861	3.95356	15.6079	1.14982	9.05515	4.50381	-7.11408	-17.2173	-1.31515	1.47E-14	3.18E-14	5.76E-15
0.055	103.843	-0.035	1.81488	0.698043	158.485	0.674783	1.20257	3.96497	-0.272512	8.9329	6.71482	2.19407	-7.97538	-2.97818	0.0462048	0.000533964	0.662642	0.225675	-3.06701	-1.10951	0.397296	-6.13665	-2.21208	1.84373	16.7998	17.7086	0.00E+00	1.59E-15	0.00E+00	4.8391	-13.6146	-7.73209	-1.16022	10.4274	-2.51515	0.413857	13.2353	6.73896	0.00E+00	1.59E-15	0.00E+00	-3.78926	-11.2207	5.49003	1.98746	17.1934	-4.55738	3.15201	13.3928	-4.95321	0.91611	3.96775	15.598	1.14892	9.05443	4.49483	-7.12417	-17.2194	-1.31575	1.26E-14	3.26E-14	5.76E-15
0.044	103.844	-0.054	1.81718	0.695275	158.508	0.710492	1.20539	3.97371	-0.286526	8.93475	6.70436	2.18637	-7.97305	-3.0767	0.0462048	0.000533964	0.662642	0.224728	-3.06863	-1.11	0.397272	-6.14034	-2.21387	1.83386	16.8164	17.687	0.00E+00	1.59E-15	0.00E+00	4.83419	-13.5861	-7.732	-1.1421	10.4521	-2.53024	0.436369	13.2511	6.72694	0.00E+00	1.59E-15	0.00E+00	-3.79534	-11.2131	5.47831	1.99095	17.1973	-4.55903	3.16103	13.3941	-4.96661	0.92079	3.97525	15.5862	1.14906	9.05437	4.48345	-7.13166	-17.2224	-1.31635	1.58E-14	3.02E-14	5.76E-15
0.066	103.846	-0.054	1.82267	0.68737	158.527	0.716198	1.20683	3.97826	-0.296761	8.93649	6.70382	2.19536	-7.97412	-3.08165	0.0462048	0.000533964	0.662642	0.223902	-3.07131	-1.11057	0.396949	-6.14367	-2.21716	1.81889	16.8364	17.6765	-2.65E-31	4.77E-15	3.18E-15	4.83043	-13.5576	-7.73161	-1.13712	10.4792	-2.54891	0.448886	13.2455	6.70975	-2.65E-31	4.77E-15	3.18E-15	-3.80069	-11.1917	5.47843	1.99263	17.2045	-4.55987	3.16308	13.4028	-4.96847	0.936037	3.97721	15.5648	1.14826	9.05464	4.48194	-7.14076	-17.2241	-1.31693	1.20E-14	3.02E-14	5.76E-15
0.048	103.847	-0.076	1.82285	0.684898	158.545	0.742666	1.21034	3.9805	-0.299384	8.93821	6.70097	2.18554	-7.97903	-3.3598	0.0462048	0.000533964	0.662642	0.223227	-3.07313	-1.11124	0.39701	-6.14588	-2.21906	1.80661	16.8507	17.6672	-7.06E-31	3.18E-15	1.27E-14	4.82126	-13.5459	-7.74539	-1.11622	10.4928	-2.55942	0.44989	13.244	6.70998	-7.06E-31	3.18E-15	1.27E-14	-3.81451	-11.1654	5.47479	1.99108	17.209	-4.55881	3.15262	13.407	-4.96567	0.939535	3.98298	15.5484	1.14761	9.05511	4.48318	-7.14451	-17.2251	-1.31753	1.74E-14	3.34E-14	5.57E-15
0.091	103.848	-0.064	1.82056	0.678891	158.548	0.717455	1.21658	3.9792	-0.299229	8.9397	6.69927	2.19564	-7.9632	-2.95782	0.0462048	0.000533964	0.662642	0.222689	-3.07451	-1.11198	0.39723	-6.14985	-2.22034	1.79618	16.869	17.6595	0.00E+00	0.00E+00	0.00E+00	4.77904	-13.5601	-7.77064	-1.07148	10.4909	-2.55795	0.469331	13.2476	6.72807	0.00E+00	0.00E+00	0.00E+00	-3.81417	-11.1439	5.47137	1.98384	17.1974	-4.55309	3.14291	13.412	-4.9645	0.941461	3.98663	15.5458	1.14684	9.05558	4.48855	-7.14963	-17.2259	-1.31816	1.38E-14	3.26E-14	5.96E-15
0.066	103.85	-0.089	1.82253	0.685675	158.559	0.748416	1.22132	3.97035	-0.29596	8.94095	6.69115	2.17818	-7.95925	-3.20228	0.0462048	0.000533964	0.662642	0.222263	-3.07627	-1.11282	0.397581	-6.15452	-2.2213	1.78792	16.8964	17.6595	-7.95E-16	-1.59E-15	-3.18E-15	4.72322	-13.582	-7.80345	-1.03828	10.4884	-2.55631	0.480614	13.2249	6.73572	-7.95E-16	-1.59E-15	-3.18E-15	-3.80929	-11.136	5.45787	1.96364	17.1818	-4.53537	3.14751	13.4179	-4.97578	0.941942	3.99714	15.5269	1.14596	9.05586	4.49767	-7.15241	-17.2271	-1.31884	1.40E-14	3.26E-14	5.37E-15
0.07	103.851	-0.097	1.82344	0.688937	158.576	0.733256	1.23452	3.95789	-0.291811	8.94165	6.6856	2.18793	-7.96109	-3.50559	0.0462048	0.000533964	0.662642	0.221928	-3.07927	-1.11376	0.398009	-6.15959	-2.22224	1.79859	16.9272	17.6536	0.00E+00	0.00E+00	-3.18E-15	4.66987	-13.5973	-7.83487	-0.994596	10.4867	-2.5712	0.440592	13.2358	6.71578	0.00E+00	0.00E+00	-3.18E-15	-3.80168	-11.1438	5.44916	1.94978	17.1718	-4.52266	3.12983	13.4168	-4.98404	0.941487	4.0028	15.5132	1.14767	9.05595	4.49318	-7.15988	-17.2289	-1.31958	1.40E-14	3.10E-14	5.17E-15
0.091	103.855	-0.1	1.81553	0.666287	158.603	0.724749	1.21983	3.9377	-0.287496	8.94169	6.68182	2.18752	-7.93997	-3.16643	0.0462048	0.000533964	0.662642	0.221644	-3.08507	-1.11479	0.398206	-6.17121	-2.2235	1.82461	16.9486	17.6413	0.00E+00	1.59E-15	0.00E+00	4.60665	-13.6155	-7.87536	-0.932157	10.4881	-2.59982	0.425084	13.2507	6.68713	0.00E+00	1.59E-15	0.00E+00	-3.78395	-11.1696	5.44862	1.94437	17.1615	-4.51572	3.11236	13.4166	-4.98716	0.943897	3.98415	15.4953	1.15071	9.05558	4.48262	-7.16971	-17.2324	-1.3204	1.39E-14	3.18E-14	5.17E-15
0.104	103.857	-0.113	1.79872	0.612485	158.634	0.736452	1.17124	3.90775	-0.283658	8.94093	6.67855	2.18165	-7.92914	-3.03149	0.0462048	0.000533964	0.662642	0.22136	-3.09493	-1.11631	0.398042	-6.19093	-2.2254	1.84966	16.9446	17.6233	-7.95E-16	1.59E-15	3.18E-15	4.51171	-13.6596	-7.93569	-0.841799	10.4768	-2.64189	0.50403	13.2305	6.63199	-7.95E-16	1.59E-15	3.18E-15	-3.76939	-11.1987	5.44102	1.93949	17.1282	-4.5065	3.11643	13.4167	-4.99499	0.951296	3.9349	15.4659	1.15285	9.05437	4.48007	-7.17894	-17.2385	-1.32134	1.44E-14	3.10E-14	5.76E-15
0.111	103.858	-0.133	1.7789	0.54891	158.664	0.750221	1.11087	3.88113	-0.281349	8.93921	6.67717	2.18023	-7.93324	-3.14005	0.0462048	0.000533964	0.662642	0.221163	-3.10712	-1.1172	0.397545	-6.21529	-2.22859	1.86442	16.9343	17.6015	1.59E-15	-3.18E-15	9.54E-15	4.39395	-13.7273	-7.9958	-0.739081	10.4442	-2.70996	0.640327	13.1874	6.52943	1.59E-15	-3.18E-15	9.54E-15	-3.74885	-11.2353	5.4334	1.93019	17.0782	-4.48592	3.13821	13.417	-5.00553	0.960845	3.87548	15.4371	1.15497	9.05219	4.47945	-7.18392	-17.2465	-1.32239	1.56E-14	3.10E-14	5.37E-15
